<svg width="20" height="21" viewBox="0 0 20 21" fill="none" xmlns="http://www.w3.org/2000/svg">
<path d="M7.34284 2.16797L4.32617 5.19297" stroke="white" stroke-miterlimit="10" stroke-linecap="round" stroke-linejoin="round"/>
<path d="M12.6592 2.16797L15.6758 5.19297" stroke="white" stroke-miterlimit="10" stroke-linecap="round" stroke-linejoin="round"/>
<path d="M1.66797 7.03971C1.66797 5.49805 2.49297 5.37305 3.51797 5.37305H16.4846C17.5096 5.37305 18.3346 5.49805 18.3346 7.03971C18.3346 8.83138 17.5096 8.70638 16.4846 8.70638H3.51797C2.49297 8.70638 1.66797 8.83138 1.66797 7.03971Z" stroke="white"/>
<path d="M8.13477 12.168V15.1263" stroke="white" stroke-linecap="round"/>
<path d="M11.9658 12.168V15.1263" stroke="white" stroke-linecap="round"/>
<path d="M2.91797 8.83203L4.09297 16.032C4.35964 17.6487 5.0013 18.832 7.38464 18.832H12.4096C15.0013 18.832 15.3846 17.6987 15.6846 16.132L17.0846 8.83203" stroke="white" stroke-linecap="round"/>
</svg>
